/* XPM */
static char * close_pressed_xpm[] = {
"20 24 66 1",
" 	c #463731",
".	c #B06D50",
"+	c #9D654D",
"@	c #9C654D",
"#	c #9B644C",
"$	c #7E5745",
"%	c #B16F52",
"&	c #9A644C",
"*	c #755243",
"=	c #865B48",
"-	c #99634C",
";	c #855A48",
">	c #AE6E52",
",	c #97634C",
"'	c #5D453B",
")	c #624A40",
"!	c #775344",
"~	c #7F6A61",
"{	c #B09488",
"]	c #AC6D51",
"^	c #96624C",
"/	c #845A47",
"(	c #C4B2AA",
"_	c #D2C4BE",
":	c #685247",
"<	c #775343",
"[	c #DFD2CC",
"}	c #A96B50",
"|	c #95624B",
"1	c #835A47",
"2	c #634C42",
"3	c #E3D7D2",
"4	c #685147",
"5	c #A76A50",
"6	c #94614B",
"7	c #835947",
"8	c #765243",
"9	c #D3C6C0",
"0	c #A4694F",
"a	c #93614B",
"b	c #825947",
"c	c #A2684F",
"d	c #8E5F4A",
"e	c #815947",
"f	c #9F674E",
"g	c #8D5E4A",
"h	c #815847",
"i	c #8D5E49",
"j	c #805846",
"k	c #9A644D",
"l	c #8C5D49",
"m	c #745242",
"n	c #DED2CC",
"o	c #98634C",
"p	c #8B5D49",
"q	c #7F5746",
"r	c #735142",
"s	c #AD9287",
"t	c #95624C",
"u	c #8A5D49",
"v	c #895C48",
"w	c #7E5746",
"x	c #90604A",
"y	c #885C48",
"z	c #875B48",
"A	c #8F5F4A",
"                    ",
"....................",
"++++++++++++++++++++",
"@@@              @@@",
"## $$$$$$$$$$$$$$ %#",
"& *=============== %",
"- *;;;;;;;;;;;;;;; >",
", *;;;')!;;!)~{;;; ]",
"^ *//'(_:<<:_[~/// }",
"| *112_3_:4_3_2111 5",
"6 *778:_3993_:8777 0",
"a *bbb*:93394*bbbb c",
"d *eee*49339:*eeee f",
"g *hh*:_3993_:*hhh +",
"i *jj2_3_4:_3_2jjj k",
"l *jj'(_:mm:_n~jjj o",
"p *qqq')rqqr)~sqqq t",
"u *qqqqqqqqqqqqqqq a",
"v *wwwwwwwwwwwwwww x",
"yy $$$$$$$$$$$$$$ xy",
"zzA              Azz",
"===AAAAAAAAAAAAAA===",
";;;;;;;;;;;;;;;;;;;;",
"''''''''''''''''''''"};
