/* XPM */
static char * close_prelight_xpm[] = {
"20 24 67 1",
" 	c #463731",
".	c #B06D50",
"+	c #9D654D",
"@	c #8F5F4A",
"#	c #8C5D49",
"$	c #9C654D",
"%	c #8D5E49",
"&	c #7F5746",
"*	c #4D3C34",
"=	c #7E5745",
"-	c #93614B",
";	c #885C48",
">	c #A96F56",
",	c #8E634F",
"'	c #8A5C49",
")	c #A1674D",
"!	c #A86F56",
"~	c #9B6953",
"{	c #8B5D49",
"]	c #A76E56",
"^	c #5D453B",
"/	c #624A40",
"(	c #8E604D",
"_	c #7F6A61",
":	c #C39F8F",
"<	c #8C5E49",
"[	c #A56D55",
"}	c #C8B5AD",
"|	c #D2C4BE",
"1	c #695247",
"2	c #8C5F4C",
"3	c #DFD2CC",
"4	c #A46D55",
"5	c #634C42",
"6	c #E3D7D2",
"7	c #685247",
"8	c #8E5F4A",
"9	c #A36C55",
"0	c #8B5F4C",
"a	c #D3C6C0",
"b	c #A26B55",
"c	c #8A5E4C",
"d	c #90604A",
"e	c #865D4B",
"f	c #92604A",
"g	c #996852",
"h	c #855C4A",
"i	c #986752",
"j	c #94614B",
"k	c #976752",
"l	c #C6B4AC",
"m	c #835C4A",
"n	c #95624B",
"o	c #956652",
"p	c #825B4A",
"q	c #B99A8D",
"r	c #96624B",
"s	c #936552",
"t	c #97634C",
"u	c #936551",
"v	c #91604A",
"w	c #855E4E",
"x	c #906350",
"y	c #875B48",
"z	c #865B48",
"A	c #9A644C",
"B	c #855A48",
"                    ",
"....................",
"++@##############@++",
"$%&**************&%$",
"%=*-............-*=%",
";*@>>>>>>>>>>>>>>,*;",
"'*)!!!!!!!!!!!!!!~*'",
"{*)]]]^/(]](/_:]]~*{",
"<*)[[^}|1221|3_[[~*<",
"%*)445|6|17|6|544~*%",
"8*)9901|6aa6|1099~*8",
"@*)bbbc1a66a7cbbb~*@",
"d*)~~~e7a66a1e~~~~*d",
"f*)ggh1|6aa6|1hgg~*f",
"-*)ii5|6|71|6|5ii~*-",
"j*)kk^l|1mm1|3_kk~*j",
"n*)ooo^/poop/_qoo~*n",
"r*)ssssssssssssss~*r",
"t*@uuuuuuuuuuuuuu,*t",
"vj*wxxxxxxxxxxxxw*jv",
"y@-**************-@y",
"zzjAAAAAAAAAAAAAAjzz",
"BBBBBBBBBBBBBBBBBBBB",
"^^^^^^^^^^^^^^^^^^^^"};
