/* XPM */
static char * hide_pressed_xpm[] = {
"20 24 49 1",
" 	c #463731",
".	c #B06D50",
"+	c #9D654D",
"@	c #9C654D",
"#	c #9B644C",
"$	c #7E5745",
"%	c #B16F52",
"&	c #9A644C",
"*	c #755243",
"=	c #865B48",
"-	c #99634C",
";	c #855A48",
">	c #AE6E52",
",	c #97634C",
"'	c #AC6D51",
")	c #96624C",
"!	c #845A47",
"~	c #A96B50",
"{	c #95624B",
"]	c #835A47",
"^	c #A76A50",
"/	c #94614B",
"(	c #835947",
"_	c #A4694F",
":	c #93614B",
"<	c #825947",
"[	c #A2684F",
"}	c #8E5F4A",
"|	c #815947",
"1	c #9F674E",
"2	c #8D5E4A",
"3	c #815847",
"4	c #5D453B",
"5	c #8D5E49",
"6	c #805846",
"7	c #E3D7D2",
"8	c #9A644D",
"9	c #8C5D49",
"0	c #98634C",
"a	c #8B5D49",
"b	c #7F5746",
"c	c #95624C",
"d	c #8A5D49",
"e	c #895C48",
"f	c #7E5746",
"g	c #90604A",
"h	c #885C48",
"i	c #875B48",
"j	c #8F5F4A",
"                    ",
"....................",
"++++++++++++++++++++",
"@@@              @@@",
"## $$$$$$$$$$$$$$ %#",
"& *=============== %",
"- *;;;;;;;;;;;;;;; >",
", *;;;;;;;;;;;;;;; '",
") *!!!!!!!!!!!!!!! ~",
"{ *]]]]]]]]]]]]]]] ^",
"/ *((((((((((((((( _",
": *<<<<<<<<<<<<<<< [",
"} *||||||||||||||| 1",
"2 *334444444444333 +",
"5 *664777777774666 8",
"9 *664777777774666 0",
"a *bb4444444444bbb c",
"d *bbbbbbbbbbbbbbb :",
"e *fffffffffffffff g",
"hh $$$$$$$$$$$$$$ gh",
"iij              jii",
"===jjjjjjjjjjjjjj===",
";;;;;;;;;;;;;;;;;;;;",
"44444444444444444444"};
