/* XPM */
static char * maximize_toggled_prelight_xpm[] = {
"20 24 48 1",
" 	c #463731",
".	c #9D654D",
"+	c #9C654D",
"@	c #8F5F4A",
"#	c #8C5D49",
"$	c #9B644C",
"%	c #8D5E49",
"&	c #7F5746",
"*	c #4D3C34",
"=	c #7E5745",
"-	c #93614B",
";	c #B06D50",
">	c #885C48",
",	c #A96F56",
"'	c #8E634F",
")	c #8A5C49",
"!	c #A1674D",
"~	c #A86F56",
"{	c #9B6953",
"]	c #8B5D49",
"^	c #A76E56",
"/	c #8C5E49",
"(	c #A56D55",
"_	c #5D453B",
":	c #A46D55",
"<	c #E3D7D2",
"[	c #8E5F4A",
"}	c #A36C55",
"|	c #A26B55",
"1	c #90604A",
"2	c #92604A",
"3	c #996852",
"4	c #986752",
"5	c #94614B",
"6	c #976752",
"7	c #95624B",
"8	c #956652",
"9	c #96624B",
"0	c #936552",
"a	c #97634C",
"b	c #936551",
"c	c #91604A",
"d	c #855E4E",
"e	c #906350",
"f	c #875B48",
"g	c #865B48",
"h	c #9A644C",
"i	c #855A48",
"                    ",
"....................",
"++@##############@++",
"$%&**************&%$",
"%=*-;;;;;;;;;;;;-*=%",
">*@,,,,,,,,,,,,,,'*>",
")*!~~~~~~~~~~~~~~{*)",
"]*!^^^^^^^^^^^^^^{*]",
"/*!(((________((({*/",
"%*!:::_<<<<<<_:::{*%",
"[*!}}}_<<<<<<_}}}{*[",
"@*!|||_<____<_|||{*@",
"1*!{{{_<_{{_<_{{{{*1",
"2*!333_<____<_333{*2",
"-*!444_<<<<<<_444{*-",
"5*!666________666{*5",
"7*!88888888888888{*7",
"9*!00000000000000{*9",
"a*@bbbbbbbbbbbbbb'*a",
"c5*deeeeeeeeeeeed*5c",
"f@-**************-@f",
"gg5hhhhhhhhhhhhhh5gg",
"iiiiiiiiiiiiiiiiiiii",
"____________________"};
