/* XPM */
static char * maximize_toggled_active_xpm[] = {
"20 24 39 1",
" 	c #463731",
".	c #9D654D",
"+	c #9C654D",
"@	c #8F5F4A",
"#	c #8C5D49",
"$	c #9B644C",
"%	c #8D5E49",
"&	c #7F5746",
"*	c #4D3C34",
"=	c #7E5745",
"-	c #93614B",
";	c #B06D50",
">	c #885C48",
",	c #A0674D",
"'	c #8A5C49",
")	c #A1674D",
"!	c #9F664D",
"~	c #8B5D49",
"{	c #8C5E49",
"]	c #5D453B",
"^	c #9A644C",
"/	c #E3D7D2",
"(	c #8E5F4A",
"_	c #98634C",
":	c #97624C",
"<	c #90604A",
"[	c #92604A",
"}	c #94614B",
"|	c #895C48",
"1	c #95624B",
"2	c #875B48",
"3	c #96624B",
"4	c #855A48",
"5	c #97634C",
"6	c #845A47",
"7	c #91604A",
"8	c #735143",
"9	c #815846",
"0	c #865B48",
"                    ",
"....................",
"++@##############@++",
"$%&**************&%$",
"%=*-;;;;;;;;;;;;-*=%",
">*@,,,,,,,,,,,,,,=*>",
"'*)!!!!!!!!!!!!!!@*'",
"~*)..............@*~",
"{*)$$$]]]]]]]]$$$@*{",
"%*)^^^]//////]^^^@*%",
"(*)___]//////]___@*(",
"@*):::]/]]]]/]:::@*@",
"<*)(((]/]((]/](((@*<",
"[*){{{]/]]]]/]{{{@*[",
"-*)~~~]//////]~~~@*-",
"}*)|||]]]]]]]]|||@*}",
"1*)22222222222222@*1",
"3*)44444444444444@*3",
"5*@66666666666666=*5",
"7}*89999999999998*}7",
"2@-**************-@2",
"00}^^^^^^^^^^^^^^}00",
"44444444444444444444",
"]]]]]]]]]]]]]]]]]]]]"};
