/* XPM */
static char * maximize_toggled_inactive_xpm[] = {
"20 24 47 1",
" 	c #8B7969",
".	c #EFE9E3",
"+	c #E4DAD2",
"@	c #DACEC3",
"#	c #D6C9BD",
"$	c #E3D9D1",
"%	c #D8CBC0",
"&	c #CFC0B3",
"*	c #988472",
"=	c #CDBEB1",
"-	c #EAE2DB",
";	c #FFFFFF",
">	c #E6DDD5",
",	c #FEFEFD",
"'	c #DED2C8",
")	c #D8CCC1",
"!	c #F7F4F1",
"~	c #FDFCFB",
"{	c #D9CDC2",
"]	c #FBFAF8",
"^	c #DACDC2",
"/	c #FAF8F6",
"(	c #F8F6F3",
"_	c #706C69",
":	c #DBCFC4",
"<	c #DBCFC5",
"[	c #F5F2EE",
"}	c #DCD0C5",
"|	c #EEE7E1",
"1	c #DCD0C6",
"2	c #ECE5DF",
"3	c #DDD1C7",
"4	c #EAE2DC",
"5	c #DDD2C8",
"6	c #E8E0D9",
"7	c #E7DED6",
"8	c #DED3C9",
"9	c #E5DCD4",
"0	c #DFD4CA",
"a	c #E3DAD1",
"b	c #D3C5B8",
"c	c #E1D7CD",
"d	c #D4C6BA",
"e	c #D3C5B9",
"f	c #DFD4CB",
"g	c #D2C5B9",
"h	c #A28F7E",
"                    ",
"....................",
"++@##############@++",
"$%&**************&%$",
"%=*-;;;;;;;;;;;;-*=%",
"%*>,,,,,,,,,,,,,,'*%",
")*!~~~~~~~~~~~~~~.*)",
"{*!]]]]]]]]]]]]]].*{",
"^*!//////////////.*^",
"@*!((((______((((.*@",
":*!!!!!______!!!!.*:",
"<*![[[[_[[[[_[[[[.*<",
"}*!||||_||||_||||.*}",
"1*!2222_2222_2222.*1",
"3*!4444______4444.*3",
"5*!66666666666666.*5",
"'*!77777777777777.*'",
"8*!99999999999999.*8",
"0*>aaaaaaaaaaaaaa'*0",
":'*bccccccccccccb*':",
"d@}**************}@d",
"ee3ffffffffffffff3ee",
"gggggggggggggggggggg",
"hhhhhhhhhhhhhhhhhhhh"};
