/* XPM */
static char * title_1_inactive_xpm[] = {
"7 24 24 1",
" 	c #8B7969",
".	c #EFE9E3",
"+	c #E4DAD2",
"@	c #E3D9D1",
"#	c #E2D8D0",
"$	c #E2D8CF",
"%	c #E1D7CD",
"&	c #E0D6CC",
"*	c #E0D5CB",
"=	c #DFD4CA",
"-	c #DED3C9",
";	c #DED2C8",
">	c #D9CDC2",
",	c #D9CCC1",
"'	c #D8CBC0",
")	c #D7CABF",
"!	c #D7CABE",
"~	c #D6C9BD",
"{	c #D5C8BC",
"]	c #D4C7BB",
"^	c #D4C6BA",
"/	c #D3C5B9",
"(	c #D2C5B9",
"_	c #A28F7E",
"       ",
".......",
"+++++++",
"@@@@@@@",
"#######",
"$$$$$$$",
"%%%%%%%",
"&&&&&&&",
"*******",
"=======",
"-------",
";;;;;;;",
">>>>>>>",
",,,,,,,",
"'''''''",
")))))))",
"!!!!!!!",
"~~~~~~~",
"{{{{{{{",
"]]]]]]]",
"^^^^^^^",
"///////",
"(((((((",
"_______"};
