<?xml version="1.0" encoding="UTF-8" standalone="no"?>
<svg
   width="64"
   height="64"
   version="1.1"
   id="svg7"
   sodipodi:docname="text-x-patch.svg"
   inkscape:version="1.3.2 (091e20ef0f, 2023-11-25, custom)"
   xmlns:inkscape="http://www.inkscape.org/namespaces/inkscape"
   xmlns:sodipodi="http://sodipodi.sourceforge.net/DTD/sodipodi-0.dtd"
   xmlns:xlink="http://www.w3.org/1999/xlink"
   xmlns="http://www.w3.org/2000/svg"
   xmlns:svg="http://www.w3.org/2000/svg">
  <defs
     id="defs7">
    <linearGradient
       id="linearGradient7"
       inkscape:collect="always">
      <stop
         style="stop-color:#ffdb10;stop-opacity:1;"
         offset="0"
         id="stop7" />
      <stop
         style="stop-color:#ffaf10;stop-opacity:1;"
         offset="1"
         id="stop8" />
    </linearGradient>
    <radialGradient
       inkscape:collect="always"
       xlink:href="#linearGradient9"
       id="radialGradient10"
       cx="15.999628"
       cy="48.462826"
       fx="15.999628"
       fy="48.462826"
       r="22"
       gradientTransform="matrix(2.1335699,-1.2318172,1.5677674,2.7154527,-96.115134,-38.937205)"
       gradientUnits="userSpaceOnUse" />
    <linearGradient
       id="linearGradient9"
       inkscape:collect="always">
      <stop
         style="stop-color:#4f4f4f;stop-opacity:1;"
         offset="0"
         id="stop9" />
      <stop
         style="stop-color:#6a6a6a;stop-opacity:1;"
         offset="1"
         id="stop10" />
    </linearGradient>
    <radialGradient
       inkscape:collect="always"
       xlink:href="#linearGradient7"
       id="radialGradient8"
       cx="25.729101"
       cy="44.344452"
       fx="25.729101"
       fy="44.344452"
       r="11"
       gradientTransform="matrix(3.4436673,-0.92272788,0.92272788,3.4436673,-107.94682,-78.219092)"
       gradientUnits="userSpaceOnUse" />
  </defs>
  <sodipodi:namedview
     id="namedview7"
     pagecolor="#ffffff"
     bordercolor="#000000"
     borderopacity="0.25"
     inkscape:showpageshadow="2"
     inkscape:pageopacity="0.0"
     inkscape:pagecheckerboard="0"
     inkscape:deskcolor="#d1d1d1"
     inkscape:zoom="11.313709"
     inkscape:cx="29.300736"
     inkscape:cy="40.128308"
     inkscape:window-width="1920"
     inkscape:window-height="1014"
     inkscape:window-x="0"
     inkscape:window-y="0"
     inkscape:window-maximized="1"
     inkscape:current-layer="svg7" />
  <g
     id="g7"
     transform="translate(2,-20)">
    <path
       style="fill:url(#radialGradient10)"
       d="M 10.75,24 C 9.2265,24 8,25.2488 8,26.8 v 50.4 c 0,1.55008 1.2265,2.8 2.75,2.8 h 38.5 C 50.7724,80 52,78.75008 52,77.2 V 42 L 34,24 Z"
       id="path2"
       sodipodi:nodetypes="ssssssccs" />
    <path
       style="opacity:0.395668;fill:#ffffff;fill-opacity:1"
       d="M 52,42 34,24 V 39.1875 C 34,40.74675 35.2555,42 36.8125,42 Z"
       id="path4" />
  </g>
  <path
     d="m 22.46875,31.46875 c -2.112429,2.112334 -1.923329,5.701791 0.423828,8.048828 L 24.375,41 22.892578,42.482422 c -2.347143,2.347038 -2.536243,5.936495 -0.423828,8.048828 2.112416,2.112334 5.701684,1.923222 8.048828,-0.423828 L 32,48.625 l 1.482422,1.482422 c 2.347144,2.347036 5.936399,2.536148 8.048828,0.423828 2.112429,-2.11232 1.92333,-5.70179 -0.423828,-8.048828 L 39.625,41 41.107422,39.517578 c 2.347144,-2.347037 2.536244,-5.936494 0.423828,-8.048828 -2.112415,-2.112333 -5.701684,-1.923224 -8.048828,0.423828 L 32,33.375 30.517578,31.892578 C 28.216863,29.591964 24.621912,29.315798 22.46875,31.46875 Z M 32,35.28125 c 0.526331,0.526433 0.526331,1.379817 0,1.90625 -0.526331,-0.526433 -0.526331,-1.379817 0,-1.90625 z m -1.558594,2.511714 c 0.267239,0.997535 -0.650957,1.915589 -1.648437,1.648437 -0.293491,-1.095529 0.775756,-1.885018 1.648437,-1.648437 z m 4.765625,1.648442 c -0.997415,0.267134 -1.915681,-0.650882 -1.648437,-1.648437 0.99209,-0.268977 1.916474,0.647921 1.648437,1.648437 z m -3.109371,0.214838 c 1.710019,0 1.763078,2.686727 0.02348,2.686727 -1.739598,0 -1.733499,-2.686727 -0.02348,-2.686727 z M 28.1875,41 c -0.526447,0.52625 -1.379803,0.52625 -1.90625,0 0.524675,-0.524495 1.380338,-0.52573 1.90625,0 z m 9.53125,0 c -0.526447,0.52625 -1.379803,0.52625 -1.90625,0 0.52597,-0.525788 1.381637,-0.524433 1.90625,0 z m -7.277344,3.207031 c -0.997415,0.267134 -1.915681,-0.650882 -1.648437,-1.648437 0.987733,-0.268297 1.917567,0.643842 1.648437,1.648437 z m 4.765625,-1.648442 c 0.267239,0.997535 -0.650957,1.915589 -1.648437,1.648437 -0.298083,-1.112669 0.798056,-1.879419 1.648437,-1.648437 z M 32,44.8125 c 0.526331,0.526433 0.526331,1.379817 0,1.90625 -0.526331,-0.526433 -0.526331,-1.379817 0,-1.90625 z"
     style="fill:url(#radialGradient8)"
     id="path8"
     sodipodi:nodetypes="ccccscccscccscccccccccccccczcscscsccsccscccc" />
</svg>
