/* XPM */
static char * bottom_left_inactive_xpm[] = {
"4 4 4 1",
" 	c #8B7969",
".	c #ECE4DD",
"+	c #E6DDD5",
"@	c #D1C2B6",
" .++",
" .++",
" .@@",
"    "};
