/* XPM */
static char * close_inactive_xpm[] = {
"20 24 77 1",
" 	c #8B7969",
".	c #EFE9E3",
"+	c #E4DAD2",
"@	c #DACEC3",
"#	c #D6C9BD",
"$	c #E3D9D1",
"%	c #D8CBC0",
"&	c #CFC0B3",
"*	c #988472",
"=	c #CDBEB1",
"-	c #EAE2DB",
";	c #FFFFFF",
">	c #E6DDD5",
",	c #FEFEFD",
"'	c #DED2C8",
")	c #D8CCC1",
"!	c #F7F4F1",
"~	c #FDFCFB",
"{	c #D9CDC2",
"]	c #FBFAF8",
"^	c #F6F5F3",
"/	c #D8D6D4",
"(	c #BBB8B6",
"_	c #DACDC2",
":	c #FAF8F6",
"<	c #95928F",
"[	c #827E7B",
"}	c #EFEDEA",
"|	c #76726E",
"1	c #D7D5D2",
"2	c #F8F6F3",
"3	c #F2EFEC",
"4	c #817E7A",
"5	c #706C69",
"6	c #EDEBE8",
"7	c #DBCFC4",
"8	c #ECE9E6",
"9	c #817D7A",
"0	c #807C79",
"a	c #DBCFC5",
"b	c #F5F2EE",
"c	c #EAE7E3",
"d	c #807C78",
"e	c #DCD0C5",
"f	c #EEE7E1",
"g	c #E4DDD7",
"h	c #7F7A76",
"i	c #807B77",
"j	c #DCD0C6",
"k	c #ECE5DF",
"l	c #E2DBD5",
"m	c #7F7B77",
"n	c #DDD1C7",
"o	c #EAE2DC",
"p	c #E4DCD7",
"q	c #E0D8D3",
"r	c #DDD2C8",
"s	c #E8E0D9",
"t	c #918B87",
"u	c #DED6D0",
"v	c #75716D",
"w	c #CAC3BD",
"x	c #E7DED6",
"y	c #E3DAD2",
"z	c #C9C1BB",
"A	c #B0A9A3",
"B	c #DED3C9",
"C	c #E5DCD4",
"D	c #DFD4CA",
"E	c #E3DAD1",
"F	c #D3C5B8",
"G	c #E1D7CD",
"H	c #D4C6BA",
"I	c #D3C5B9",
"J	c #DFD4CB",
"K	c #D2C5B9",
"L	c #A28F7E",
"                    ",
"....................",
"++@##############@++",
"$%&**************&%$",
"%=*-;;;;;;;;;;;;-*=%",
"%*>,,,,,,,,,,,,,,'*%",
")*!~~~~~~~~~~~~~~.*)",
"{*!]]]]^]]]]^/(]].*{",
"_*!:::<[}::}[|1::.*_",
"@*!22345466454322.*@",
"7*!!!!89500598!!!.*7",
"a*!bbbbcd55dcbbbb.*a",
"e*!ffffgh55igffff.*e",
"j*!kkkld5hm5dlkkk.*j",
"n*!oopi5iqqi5ipoo.*n",
"r*!ssstiussuivwss.*r",
"'*!xxxxyxxxxyzAxx.*'",
"B*!CCCCCCCCCCCCCC.*B",
"D*>EEEEEEEEEEEEEE'*D",
"7'*FGGGGGGGGGGGGF*'7",
"H@e**************e@H",
"IInJJJJJJJJJJJJJJnII",
"KKKKKKKKKKKKKKKKKKKK",
"LLLLLLLLLLLLLLLLLLLL"};
