/* XPM */
static char * close_active_xpm[] = {
"20 24 59 1",
" 	c #463731",
".	c #B06D50",
"+	c #9D654D",
"@	c #8F5F4A",
"#	c #8C5D49",
"$	c #9C654D",
"%	c #8D5E49",
"&	c #7F5746",
"*	c #4D3C34",
"=	c #7E5745",
"-	c #93614B",
";	c #885C48",
">	c #A0674D",
",	c #8A5C49",
"'	c #A1674D",
")	c #9F664D",
"!	c #8B5D49",
"~	c #5D453B",
"{	c #624A40",
"]	c #875A47",
"^	c #7F6A61",
"/	c #BD9A8A",
"(	c #8C5E49",
"_	c #9B644C",
":	c #C7B4AB",
"<	c #D2C4BE",
"[	c #695247",
"}	c #865A46",
"|	c #DFD2CC",
"1	c #9A644C",
"2	c #634C42",
"3	c #E3D7D2",
"4	c #685247",
"5	c #8E5F4A",
"6	c #98634C",
"7	c #845946",
"8	c #D3C6C0",
"9	c #97624C",
"0	c #835846",
"a	c #90604A",
"b	c #7D5645",
"c	c #92604A",
"d	c #7C5644",
"e	c #94614B",
"f	c #895C48",
"g	c #C5B3AB",
"h	c #7A5444",
"i	c #95624B",
"j	c #875B48",
"k	c #795444",
"l	c #B29488",
"m	c #96624B",
"n	c #855A48",
"o	c #97634C",
"p	c #845A47",
"q	c #91604A",
"r	c #735143",
"s	c #815846",
"t	c #865B48",
"                    ",
"....................",
"++@##############@++",
"$%&**************&%$",
"%=*-............-*=%",
";*@>>>>>>>>>>>>>>=*;",
",*'))))))))))))))@*,",
"!*'+++~{]++]{^/++@*!",
"(*'__~:<[}}[<|^__@*(",
"%*'112<3<[4<3<211@*%",
"5*'667[<3883<[766@*5",
"@*'9990[833840999@*@",
"a*'555b483384b555@*a",
"c*'((d4<3883<4d((@*c",
"-*'!!2<3<44<3<2!!@*-",
"e*'ff~g<4hh4<|^ff@*e",
"i*'jjj~{kjjk{^ljj@*i",
"m*'nnnnnnnnnnnnnn@*m",
"o*@pppppppppppppp=*o",
"qe*rssssssssssssr*eq",
"j@-**************-@j",
"tte11111111111111ett",
"nnnnnnnnnnnnnnnnnnnn",
"~~~~~~~~~~~~~~~~~~~~"};
