/* XPM */
static char * hide_prelight_xpm[] = {
"20 24 47 1",
" 	c #463731",
".	c #B06D50",
"+	c #9D654D",
"@	c #8F5F4A",
"#	c #8C5D49",
"$	c #9C654D",
"%	c #8D5E49",
"&	c #7F5746",
"*	c #4D3C34",
"=	c #7E5745",
"-	c #93614B",
";	c #885C48",
">	c #A96F56",
",	c #8E634F",
"'	c #8A5C49",
")	c #A1674D",
"!	c #A86F56",
"~	c #9B6953",
"{	c #8B5D49",
"]	c #A76E56",
"^	c #8C5E49",
"/	c #A56D55",
"(	c #A46D55",
"_	c #8E5F4A",
":	c #A36C55",
"<	c #A26B55",
"[	c #90604A",
"}	c #92604A",
"|	c #996852",
"1	c #5D453B",
"2	c #986752",
"3	c #E3D7D2",
"4	c #94614B",
"5	c #976752",
"6	c #95624B",
"7	c #956652",
"8	c #96624B",
"9	c #936552",
"0	c #97634C",
"a	c #936551",
"b	c #91604A",
"c	c #855E4E",
"d	c #906350",
"e	c #875B48",
"f	c #865B48",
"g	c #9A644C",
"h	c #855A48",
"                    ",
"....................",
"++@##############@++",
"$%&**************&%$",
"%=*-............-*=%",
";*@>>>>>>>>>>>>>>,*;",
"'*)!!!!!!!!!!!!!!~*'",
"{*)]]]]]]]]]]]]]]~*{",
"^*)//////////////~*^",
"%*)((((((((((((((~*%",
"_*)::::::::::::::~*_",
"@*)<<<<<<<<<<<<<<~*@",
"[*)~~~~~~~~~~~~~~~*[",
"}*)||1111111111||~*}",
"-*)22133333333122~*-",
"4*)55133333333155~*4",
"6*)77111111111177~*6",
"8*)99999999999999~*8",
"0*@aaaaaaaaaaaaaa,*0",
"b4*cddddddddddddc*4b",
"e@-**************-@e",
"ff4gggggggggggggg4ff",
"hhhhhhhhhhhhhhhhhhhh",
"11111111111111111111"};
