/* XPM */
static char * maximize_toggled_pressed_xpm[] = {
"20 24 48 1",
" 	c #463731",
".	c #9D654D",
"+	c #9C654D",
"@	c #9B644C",
"#	c #9A644C",
"$	c #7E5745",
"%	c #B16F52",
"&	c #99634C",
"*	c #755243",
"=	c #865B48",
"-	c #98634C",
";	c #855A48",
">	c #AE6E52",
",	c #97634C",
"'	c #AC6D51",
")	c #96624B",
"!	c #845A47",
"~	c #5D453B",
"{	c #A96B50",
"]	c #95624B",
"^	c #835A47",
"/	c #E3D7D2",
"(	c #A76A50",
"_	c #94614B",
":	c #835947",
"<	c #A4694F",
"[	c #93614B",
"}	c #825947",
"|	c #A2684F",
"1	c #8E5F4A",
"2	c #815947",
"3	c #9F674E",
"4	c #8D5E4A",
"5	c #815847",
"6	c #8D5E49",
"7	c #805846",
"8	c #9A644D",
"9	c #8C5D49",
"0	c #8B5D49",
"a	c #7F5746",
"b	c #95624C",
"c	c #8A5D49",
"d	c #895C48",
"e	c #7E5746",
"f	c #90604A",
"g	c #885C48",
"h	c #875B48",
"i	c #8F5F4A",
"                    ",
"....................",
"++++++++++++++++++++",
"@@@              @@@",
"## $$$$$$$$$$$$$$ %#",
"& *=============== %",
"- *;;;;;;;;;;;;;;; >",
", *;;;;;;;;;;;;;;; '",
") *!!!~~~~~~~~!!!! {",
"] *^^^~//////~^^^^ (",
"_ *:::~//////~:::: <",
"[ *}}}~/~~~~/~}}}} |",
"1 *222~/~22~/~2222 3",
"4 *555~/~~~~/~5555 .",
"6 *777~//////~7777 8",
"9 *777~~~~~~~~7777 -",
"0 *aaaaaaaaaaaaaaa b",
"c *aaaaaaaaaaaaaaa [",
"d *eeeeeeeeeeeeeee f",
"gg $$$$$$$$$$$$$$ fg",
"hhi              ihh",
"===iiiiiiiiiiiiii===",
";;;;;;;;;;;;;;;;;;;;",
"~~~~~~~~~~~~~~~~~~~~"};
