/* XPM */
static char * top_left_active_xpm[] = {
"7 24 29 1",
" 	c None",
".	c #463731",
"+	c #4D3C34",
"@	c #61483D",
"#	c #B06D50",
"$	c #9D654D",
"%	c #9C654D",
"&	c #9B644C",
"*	c #A1674D",
"=	c #9A644C",
"-	c #99634C",
";	c #97634C",
">	c #96624C",
",	c #95624B",
"'	c #94614B",
")	c #93614B",
"!	c #8E5F4A",
"~	c #8D5E4A",
"{	c #8D5E49",
"]	c #8C5D49",
"^	c #8B5D49",
"/	c #8A5D49",
"(	c #895C48",
"_	c #885C48",
":	c #875B48",
"<	c #865B48",
"[	c #855A48",
"}	c #6F6358",
"|	c #5D453B",
"     ..",
"   +@##",
"  +##$$",
" +#%%%%",
" @#&&&&",
".*=====",
".*-----",
".*;;;;;",
".*>>>>>",
".*,,,,,",
".*'''''",
".*)))))",
".*!!!!!",
".*~~~~~",
".*{{{{{",
".*]]]]]",
".*^^^^^",
".*/////",
".*(((((",
".*_____",
".*:::::",
".*<<<<<",
".*[[[[[",
"}||||||"};
